<?xml version="1.0" encoding="windows-1252"?>
<!-- Generator: Adobe Illustrator 19.0.0, SVG Export Plug-In . SVG Version: 6.00 Build 0)  -->
<svg version="1.1" id="Layer_1" xmlns="http://www.w3.org/2000/svg" xmlns:xlink="http://www.w3.org/1999/xlink" x="0px" y="0px" viewBox="0 0 473.931 473.931" style="enable-background:new 0 0 473.931 473.931;" xml:space="preserve">
<circle style="fill:#4ABC96;" cx="236.966" cy="236.966" r="236.966"/>
<path style="fill:#E1DEDB;" d="M394.138,312.235c0,9.317-7.551,16.868-16.868,16.868H98.943c-9.317,0-16.868-7.551-16.868-16.868  V154.819c0-9.317,7.551-16.868,16.868-16.868h278.331c9.317,0,16.868,7.551,16.868,16.868v157.416H394.138z"/>
<path style="fill:#EDEBE7;" d="M82.076,235.413v-80.594c0-9.317,7.551-16.868,16.868-16.868h278.331  c9.317,0,16.868,7.551,16.868,16.868v80.594H82.076z"/>
<g>
	<path style="fill:#5C5853;" d="M115.104,297.874c0,1.111-0.857,2.009-1.912,2.009l0,0c-1.051,0-1.908-0.898-1.908-2.009V171.941   c0-1.111,0.857-2.017,1.908-2.017l0,0c1.051,0,1.912,0.906,1.912,2.017V297.874z"/>
	<path style="fill:#5C5853;" d="M141.775,297.874c0,1.111-0.857,2.009-1.912,2.009l0,0c-1.051,0-1.905-0.898-1.905-2.009V171.941   c0-1.111,0.853-2.017,1.905-2.017l0,0c1.055,0,1.912,0.906,1.912,2.017V297.874z"/>
	<path style="fill:#5C5853;" d="M182.736,297.874c0,1.111-0.853,2.009-1.908,2.009l0,0c-1.051,0-1.905-0.898-1.905-2.009V171.941   c0-1.111,0.853-2.017,1.905-2.017l0,0c1.055,0,1.908,0.906,1.908,2.017V297.874z"/>
	<path style="fill:#5C5853;" d="M222.739,297.874c0,1.111-0.853,2.009-1.901,2.009l0,0c-1.051,0-1.905-0.898-1.905-2.009V171.941   c0-1.111,0.853-2.017,1.905-2.017l0,0c1.048,0,1.901,0.906,1.901,2.017V297.874z"/>
	<path style="fill:#5C5853;" d="M307.528,297.874c0,1.111-0.853,2.009-1.908,2.009l0,0c-1.051,0-1.905-0.898-1.905-2.009V171.941   c0-1.111,0.853-2.017,1.905-2.017l0,0c1.055,0,1.908,0.906,1.908,2.017V297.874z"/>
	<path style="fill:#5C5853;" d="M314.551,297.874c0,1.111-0.801,2.009-1.785,2.009l0,0c-0.992,0-1.792-0.898-1.792-2.009V171.941   c0-1.111,0.801-2.017,1.792-2.017l0,0c0.984,0,1.785,0.906,1.785,2.017V297.874z"/>
	<path style="fill:#5C5853;" d="M365.035,297.874c0,1.111-0.801,2.009-1.785,2.009l0,0c-0.992,0-1.792-0.898-1.792-2.009V171.941   c0-1.111,0.801-2.017,1.792-2.017l0,0c0.984,0,1.785,0.906,1.785,2.017V297.874z"/>
	<path style="fill:#5C5853;" d="M225.441,169.925c-0.737,0-1.34,0.906-1.34,2.017v125.933c0,1.111,0.602,2.009,1.34,2.009   c0.745,0,1.34-0.898,1.34-2.009V171.941C226.784,170.83,226.189,169.925,225.441,169.925z"/>
	<path style="fill:#5C5853;" d="M259.738,169.925c-0.741,0-1.343,0.906-1.343,2.017v125.933c0,1.111,0.602,2.009,1.343,2.009   c0.733,0,1.336-0.898,1.336-2.009V171.941C261.078,170.83,260.475,169.925,259.738,169.925z"/>
	<path style="fill:#5C5853;" d="M343.25,169.925c-0.737,0-1.34,0.906-1.34,2.017v125.933c0,1.111,0.602,2.009,1.34,2.009   c0.741,0,1.336-0.898,1.336-2.009V171.941C344.586,170.83,343.991,169.925,343.25,169.925z"/>
	<path style="fill:#5C5853;" d="M328.957,169.925c-0.737,0-1.336,0.906-1.336,2.017v125.933c0,1.111,0.599,2.009,1.336,2.009   s1.34-0.898,1.34-2.009V171.941C330.3,170.83,329.698,169.925,328.957,169.925z"/>
	<path style="fill:#5C5853;" d="M285.137,169.925c-0.741,0-1.336,0.906-1.336,2.017v125.933c0,1.111,0.595,2.009,1.336,2.009   c0.741,0,1.34-0.898,1.34-2.009V171.941C286.48,170.83,285.882,169.925,285.137,169.925z"/>
	<path style="fill:#5C5853;" d="M238.462,169.925c-0.737,0-1.34,0.906-1.34,2.017v125.933c0,1.111,0.602,2.009,1.34,2.009   s1.343-0.898,1.343-2.009V171.941C239.806,170.83,239.199,169.925,238.462,169.925z"/>
	<path style="fill:#5C5853;" d="M166.063,169.925c-0.737,0-1.332,0.906-1.332,2.017v125.933c0,1.111,0.595,2.009,1.332,2.009   c0.745,0,1.34-0.898,1.34-2.009V171.941C167.406,170.83,166.808,169.925,166.063,169.925z"/>
	<path style="fill:#5C5853;" d="M134.629,169.925c-0.733,0-1.336,0.906-1.336,2.017v125.933c0,1.111,0.602,2.009,1.336,2.009   c0.741,0,1.34-0.898,1.34-2.009V171.941C135.968,170.83,135.369,169.925,134.629,169.925z"/>
	<path style="fill:#5C5853;" d="M208.932,169.925c-0.741,0-1.34,0.906-1.34,2.017v125.933c0,1.111,0.599,2.009,1.34,2.009   s1.34-0.898,1.34-2.009V171.941C210.276,170.83,209.673,169.925,208.932,169.925z"/>
	<path style="fill:#5C5853;" d="M123.56,297.874c0,1.111-1.018,2.009-2.268,2.009l0,0c-1.25,0-2.26-0.898-2.26-2.009V171.941   c0-1.111,1.01-2.017,2.26-2.017l0,0c1.25,0,2.268,0.906,2.268,2.017V297.874z"/>
	<path style="fill:#5C5853;" d="M151.41,297.874c0,1.111-1.325,2.009-2.967,2.009l0,0c-1.639,0-2.971-0.898-2.971-2.009V171.941   c0-1.111,1.328-2.017,2.971-2.017l0,0c1.639,0,2.967,0.906,2.967,2.017V297.874z"/>
	<path style="fill:#5C5853;" d="M199.043,297.874c0,1.111-1.325,2.009-2.967,2.009l0,0c-1.639,0-2.971-0.898-2.971-2.009V171.941   c0-1.111,1.328-2.017,2.971-2.017l0,0c1.639,0,2.967,0.906,2.967,2.017V297.874z"/>
	<path style="fill:#5C5853;" d="M257.152,297.874c0,1.111-1.328,2.009-2.975,2.009l0,0c-1.639,0-2.971-0.898-2.971-2.009V171.941   c0-1.111,1.328-2.017,2.971-2.017l0,0c1.643,0,2.975,0.906,2.975,2.017V297.874z"/>
	<path style="fill:#5C5853;" d="M357.701,297.874c0,1.111-1.991,2.009-4.449,2.009l0,0c-2.458,0-4.456-0.898-4.456-2.009V171.941   c0-1.111,1.998-2.017,4.456-2.017l0,0c2.458,0,4.449,0.906,4.449,2.017V297.874z"/>
	<path style="fill:#5C5853;" d="M280.546,297.874c0,1.111-1.994,2.009-4.456,2.009l0,0c-2.458,0-4.453-0.898-4.453-2.009V171.941   c0-1.111,1.994-2.017,4.453-2.017l0,0c2.462,0,4.456,0.906,4.456,2.017V297.874z"/>
</g>
<g>
	<path style="fill:#45423F;" d="M111.287,297.874c0,1.111,0.857,2.009,1.908,2.009c1.051,0,1.912-0.898,1.912-2.009v-62.461h-3.82   V297.874z"/>
	<path style="fill:#45423F;" d="M137.959,297.874c0,1.111,0.853,2.009,1.905,2.009c1.055,0,1.912-0.898,1.912-2.009v-62.461h-3.817   V297.874z"/>
	<path style="fill:#45423F;" d="M178.927,297.874c0,1.111,0.853,2.009,1.905,2.009c1.055,0,1.908-0.898,1.908-2.009v-62.461h-3.813   L178.927,297.874L178.927,297.874z"/>
	<path style="fill:#45423F;" d="M218.934,297.874c0,1.111,0.853,2.009,1.905,2.009c1.048,0,1.901-0.898,1.901-2.009v-62.461h-3.805   L218.934,297.874L218.934,297.874z"/>
	<path style="fill:#45423F;" d="M303.715,297.874c0,1.111,0.853,2.009,1.905,2.009c1.055,0,1.908-0.898,1.908-2.009v-62.461h-3.813   L303.715,297.874L303.715,297.874z"/>
	<path style="fill:#45423F;" d="M310.978,297.874c0,1.111,0.801,2.009,1.792,2.009c0.984,0,1.785-0.898,1.785-2.009v-62.461h-3.577   V297.874z"/>
	<path style="fill:#45423F;" d="M361.462,297.874c0,1.111,0.801,2.009,1.792,2.009c0.984,0,1.785-0.898,1.785-2.009v-62.461h-3.573   v62.461H361.462z"/>
	<path style="fill:#45423F;" d="M224.102,297.874c0,1.111,0.602,2.009,1.34,2.009c0.745,0,1.34-0.898,1.34-2.009v-62.461h-2.683   v62.461H224.102z"/>
	<path style="fill:#45423F;" d="M258.395,297.874c0,1.111,0.602,2.009,1.343,2.009c0.733,0,1.336-0.898,1.336-2.009v-62.461h-2.683   v62.461H258.395z"/>
	<path style="fill:#45423F;" d="M341.907,297.874c0,1.111,0.602,2.009,1.34,2.009c0.741,0,1.336-0.898,1.336-2.009v-62.461h-2.679   v62.461H341.907z"/>
	<path style="fill:#45423F;" d="M327.621,297.874c0,1.111,0.599,2.009,1.336,2.009s1.34-0.898,1.34-2.009v-62.461h-2.679v62.461   H327.621z"/>
	<path style="fill:#45423F;" d="M283.801,297.874c0,1.111,0.595,2.009,1.336,2.009c0.741,0,1.34-0.898,1.34-2.009v-62.461h-2.679   v62.461H283.801z"/>
	<path style="fill:#45423F;" d="M237.119,297.874c0,1.111,0.602,2.009,1.34,2.009s1.343-0.898,1.343-2.009v-62.461h-2.687v62.461   H237.119z"/>
	<path style="fill:#45423F;" d="M164.731,297.874c0,1.111,0.595,2.009,1.332,2.009c0.745,0,1.34-0.898,1.34-2.009v-62.461h-2.675   v62.461H164.731z"/>
	<path style="fill:#45423F;" d="M133.289,297.874c0,1.111,0.602,2.009,1.336,2.009c0.741,0,1.34-0.898,1.34-2.009v-62.461h-2.679   v62.461H133.289z"/>
	<path style="fill:#45423F;" d="M207.593,297.874c0,1.111,0.599,2.009,1.34,2.009s1.34-0.898,1.34-2.009v-62.461h-2.679V297.874z"/>
	<path style="fill:#45423F;" d="M119.033,297.874c0,1.111,1.01,2.009,2.26,2.009s2.268-0.898,2.268-2.009v-62.461h-4.528V297.874z"/>
	<path style="fill:#45423F;" d="M145.472,297.874c0,1.111,1.328,2.009,2.971,2.009c1.643,0,2.967-0.898,2.967-2.009v-62.461h-5.938   L145.472,297.874L145.472,297.874z"/>
	<path style="fill:#45423F;" d="M193.105,297.874c0,1.111,1.328,2.009,2.971,2.009c1.643,0,2.967-0.898,2.967-2.009v-62.461h-5.938   L193.105,297.874L193.105,297.874z"/>
	<path style="fill:#45423F;" d="M251.207,297.874c0,1.111,1.328,2.009,2.971,2.009c1.643,0,2.975-0.898,2.975-2.009v-62.461h-5.946   V297.874z"/>
	<path style="fill:#45423F;" d="M348.792,297.874c0,1.111,1.998,2.009,4.456,2.009c2.458,0,4.449-0.898,4.449-2.009v-62.461h-8.909   v62.461H348.792z"/>
	<path style="fill:#45423F;" d="M271.633,297.874c0,1.111,1.994,2.009,4.453,2.009c2.462,0,4.456-0.898,4.456-2.009v-62.461h-8.913   v62.461H271.633z"/>
</g>
<g>
</g>
<g>
</g>
<g>
</g>
<g>
</g>
<g>
</g>
<g>
</g>
<g>
</g>
<g>
</g>
<g>
</g>
<g>
</g>
<g>
</g>
<g>
</g>
<g>
</g>
<g>
</g>
<g>
</g>
</svg>