<?xml version="1.0" encoding="UTF-8"?>
<svg height="24px" version="1.1" viewBox="0 0 24 24" width="24px" xmlns="http://www.w3.org/2000/svg" xmlns:sketch="http://www.bohemiancoding.com/sketch/ns" xmlns:xlink="http://www.w3.org/1999/xlink"><title/><desc/><defs/><g fill="none" fill-rule="evenodd" id="miu" stroke="none" stroke-width="1"><g id="Artboard-1" transform="translate(-719.000000, -227.000000)"><g id="slice" transform="translate(215.000000, 119.000000)"/><path d="M735.028808,230.971069 L736.808219,230.971069 C736.808219,230.971069 738.039795,231.086957 738.039795,232.17365 L738.039795,247.826088 C738.039795,249.025031 736.808219,249.054565 736.808219,249.054565 L725.191781,249.054565 C725.191781,249.054565 723.972412,248.913044 723.972412,247.826088 L723.972412,232.17365 C723.972412,231.086957 725.191781,230.971069 725.191781,230.971069 L726.971924,230.971069 L726.971924,230 L725.191781,230 C725.191781,230 723,230 723,232.173649 C723,238.46699 723,247.826087 723,247.826087 C723,250 725.191781,250 725.191781,250 L736.808219,250 C736.808219,250 739,250 739,247.826087 L739,232.173649 C739,230 736.808219,230 736.808219,230 L735.028809,230 L735.028808,230.971069 Z M731,228 C728.963196,228 729,230.007568 729,230.007568 C729,230.007568 728,230.051147 728,231.025574 C728,232 729,232 729,232 L733,232 C733,232 734,232.070923 734,231.025574 C734,229.980225 733,230.007568 733,230.007568 C733,230.007568 733.036804,228 731,228 Z M732,230 C732,229.447715 731.552285,229 731,229 C730.447715,229 730,229.447715 730,230 C730,230.552285 730.447715,231 731,231 C731.552285,231 732,230.552285 732,230 Z" fill="#000000" id="editor-clipboard-outline-stroke"/></g></g></svg>